PathFileType	4	(X/Y/Z)	Run_300 02
DataRate	CameraRate	NumFrames	NumMarkers	Units	OrigDataRate	OrigDataStartFrame	OrigNumFrames
100	100	4	42	mm	100	87	128
Frame#	Time	LASI			RASI			LPSI			RTH1			RTH2			RTH3			LTH1			LTH2			LTH3			RTB1			RTB2			RTB3			LTB1			LTB2			LTB3			RCAL			RTOE			RMT5			LCAL			LTOE			LMT5			LACR			RACR			CLAV			C7			RUA1			RUA2			RUA3			RLEL			RMEL			LUA1			LUA2			LUA3			LLEL			RFAsuperior			RFAradius			RFAulna			LFAsuperior			LFAradius			LFAulna			LMEL			RPSI			
		X1	Y1	Z1	X2	Y2	Z2	X3	Y3	Z3	X4	Y4	Z4	X5	Y5	Z5	X6	Y6	Z6	X7	Y7	Z7	X8	Y8	Z8	X9	Y9	Z9	X10	Y10	Z10	X11	Y11	Z11	X12	Y12	Z12	X13	Y13	Z13	X14	Y14	Z14	X15	Y15	Z15	X16	Y16	Z16	X17	Y17	Z17	X18	Y18	Z18	X19	Y19	Z19	X20	Y20	Z20	X21	Y21	Z21	X22	Y22	Z22	X23	Y23	Z23	X24	Y24	Z24	X25	Y25	Z25	X26	Y26	Z26	X27	Y27	Z27	X28	Y28	Z28	X29	Y29	Z29	X30	Y30	Z30	X31	Y31	Z31	X32	Y32	Z32	X33	Y33	Z33	X34	Y34	Z34	X35	Y35	Z35	X36	Y36	Z36	X37	Y37	Z37	X38	Y38	Z38	X39	Y39	Z39	X40	Y40	Z40	X41	Y41	Z41	X42	Y42	Z42	

85	1.45	1252.436085	974.38338	-456.177929	1244.726731	987.2847870000001	-199.628466	1079.805255	1028.823243	-385.280172	1231.35231	831.171519	-142.57781	1295.95767	746.177493	-152.87511	1281.983478	604.816917	-181.483998	1180.024431	815.346855	-506.967986	1232.059763	685.544897	-485.086805	1152.182311	572.188456	-477.818923	1353.55852	353.114308	-265.31963	1294.768759	254.700557	-226.367841	1302.007539	186.720272	-295.773676	1005.500954	381.724123	-404.214728	938.746941	404.448287	-446.143838	866.4327520000001	373.269212	-391.458735	1166.619695	101.139072	-297.696508	1401.345579	79.12963999999999	-311.201395	1383.800237	55.628728	-234.986434	728.213309	468.215597	-374.304509	731.956034	226.365993	-352.345451	704.268119	249.983711	-436.704661	1274.337356	1508.364206	-460.470036	1260.730671	1462.458218	-118.525177	1312.030577	1417.507068	-263.470316	1209.043666	1519.850027	-290.96792	1178.933305	1349.967865	-36.130087	1109.950712	1359.215111	-43.038463	1105.984377	1291.168776	-15.376743	1053.746814	1228.749087	6.051786	1017.389034	1229.843263	-81.202219	1208.336545	1410.661706	-547.329637	1122.963417	1373.209217	-542.618736	1151.482359	1302.63808	-586.831422	1126.393916	1240.316174	-608.881967	1136.919675	1205.419193	-10.691323	1280.90896	1163.396395	-97.941852	1257.256728	1101.886044	-70.850206	1203.183348	1201.633309	-582.904182	1338.667794	1180.20614	-466.22399	1329.53578	1113.447598	-492.533757	1079.637392	1227.105049	-529.719913	1074.344267	1030.537859	-292.505054	
86	1.46	1247.626258	969.504635	-457.854152	1242.677551	983.193139	-199.43442	1075.877227	1023.239928	-385.864803	1228.933887	827.09888	-142.93195	1292.882879	740.926442	-153.040048	1278.237386	599.991499	-182.299044	1178.712121	810.452935	-507.942258	1237.284629	683.29715	-488.15168	1162.962429	567.089791	-479.996653	1339.981568	347.965832	-267.551129	1275.851373	252.703677	-226.686551	1278.395109	184.127263	-296.558079	1023.549894	378.767813	-405.500908	957.056012	401.922027	-447.720013	884.515204	372.131719	-392.862046	1137.435693	102.428834	-297.840789	1372.083082	77.175704	-311.71583	1354.38636	55.16635	-234.816194	744.763346	468.306136	-376.088539	751.745683	226.480358	-354.527967	726.53421	250.034443	-439.822325	1271.082651	1500.976011	-461.31369	1262.296556	1454.356286	-116.798063	1312.399186	1412.096072	-264.012842	1209.770447	1515.720501	-289.116603	1185.68162	1335.245696	-35.419347	1116.191401	1343.526582	-36.743961	1115.238622	1273.428324	-13.498498	1066.00146	1211.344223	11.41255	1026.982036	1210.717537	-74.096693	1200.824228	1403.126714	-545.940327	1114.159305	1366.880808	-537.546425	1140.465803	1295.374654	-582.000913	1113.459109	1234.666989	-604.818593	1148.515911	1186.284267	-5.410878	1290.294474	1143.842169	-95.70564899999999	1266.947223	1082.65076	-67.50030700000001	1189.791616	1192.053871	-582.114113	1328.165195	1158.463308	-473.188109	1314.717597	1093.577019	-502.833017	1070.099409	1220.903713	-524.23106	1071.52642	1025.792704	-293.553484	
87	1.47	1242.621607	965.692504	-460.011612	1241.274796	979.409957	-199.508379	1072.059077	1019.483502	-385.370593	1226.642476	822.597799	-143.975375	1288.830091	735.308911	-154.568182	1271.518183	594.000521	-183.604382	1176.607382	807.554948	-508.907095	1243.228452	682.4070379999999	-490.979267	1174.927337	564.246859	-483.040108	1324.094339	341.450456	-268.688595	1254.566002	249.733315	-226.783775	1252.891198	181.115011	-296.877824	1042.880369	376.457931	-407.212041	976.58461	399.743554	-449.600583	903.995424	370.195317	-394.515498	1107.961735	103.460902	-297.826671	1342.556674	75.835189	-311.633452	1324.656418	54.300201	-234.44819	761.437067	466.140466	-378.511229	774.124999	224.701286	-355.515268	750.924999	247.312021	-441.940828	1267.256046	1495.066309	-461.736831	1263.91178	1447.910161	-116.02384	1312.255372	1407.728721	-264.781994	1209.881825	1512.348911	-287.746934	1193.142937	1323.301917	-36.201489	1123.139677	1329.788481	-32.376972	1125.439308	1258.140064	-13.017505	1080.071302	1195.42226	14.573022	1038.204799	1192.756584	-68.985017	1193.675088	1397.536737	-544.694135	1106.066342	1362.615703	-532.113456	1129.726091	1290.55085	-577.487747	1101.003516	1230.831565	-600.7808199999999	1162.237269	1169.254222	-3.113293	1301.605934	1125.379289	-93.998721	1277.823462	1064.43575	-64.528887	1177.150352	1185.171282	-581.026571	1316.367266	1138.914789	-479.952241	1298.260597	1076.360322	-512.7731669999999	1060.193602	1216.250844	-518.950395	1068.842516	1022.793801	-293.398635	
88	1.48	1237.927711	963.120319	-462.128824	1240.20638	975.727221	-199.7049	1068.353244	1017.281223	-383.841187	1224.028583	818.086063	-145.043909	1283.836366	729.66993	-156.095727	1262.713477	587.860758	-185.137568	1173.447711	805.656383	-509.785327	1249.701907	682.844393	-493.633569	1187.987869	562.9651270000001	-486.578348	1306.581868	334.422329	-269.271126	1232.447274	246.58284	-227.09923	1226.829811	178.488268	-297.210489	1063.050433	374.830385	-409.295286	996.779365	397.951681	-451.613116	924.37076	367.492816	-396.343674	1078.460029	104.577337	-297.705101	1312.94062	74.815843	-311.687501	1294.837663	53.832146	-234.315532	778.259332	461.704144	-380.862636	798.638316	220.981002	-356.160108	776.424385	242.335454	-443.490571	1262.468512	1491.024012	-462.046607	1265.966084	1443.091626	-116.225584	1311.450592	1404.086768	-265.706547	1209.017713	1509.099105	-286.900138	1200.810837	1314.797221	-37.700979	1130.382051	1318.364873	-30.601031	1136.026675	1246.40787	-13.121823	1095.178709	1182.014461	15.451964	1050.201899	1177.36419	-66.14471399999999	1186.188258	1394.047991	-543.563164	1098.178107	1360.549534	-526.695884	1118.909999	1288.537948	-573.614163	1088.784911	1229.457443	-597.114192	1177.768138	1156.137371	-4.369909	1314.804691	1109.466058	-93.37390000000001	1289.807724	1048.920969	-62.276132	1164.721927	1180.89836	-580.362027	1303.403643	1122.987786	-486.686421	1280.372798	1062.791314	-521.557283	1049.506958	1213.985735	-514.278658	1066.266345	1021.069881	-291.953639	
